<svg xmlns="http://www.w3.org/2000/svg" viewBox="0 0 129.37 130.72"><defs><style>.cls-1{fill:#fd0;}</style></defs><title>Asset 1</title><g id="Layer_2" data-name="Layer 2"><g id="Layer_1-2" data-name="Layer 1"><path class="cls-1" d="M46.5,74.75h-37c-4.84,0-9.46,4-9.46,9v37.9c0,5,4.62,9,9.46,9h37c4.84,0,9.46-4,9.46-9V83.78c0-5-4.62-9-9.46-9m0,46.93h-37V83.78h37Z"/><path class="cls-1" d="M110.1,102.47l17.83-27.72H116.58l-13.24,20.6A5.25,5.25,0,0,1,99,97.72h-.84a5.24,5.24,0,0,1-4.36-2.37l-13.2-20.6H69.24L87.09,102.6l-19,28.12H79.59l14.61-21.6a5.22,5.22,0,0,1,4.35-2.37h.21a5.24,5.24,0,0,1,4.36,2.37l14.69,21.6h11.56Z"/><path class="cls-1" d="M24.13,23,18.8,32H46.45V47h-37V9.08H50.6l5.34-9H9.47C4.64.05,0,4.09,0,9.08V47c0,5,4.63,9,9.46,9h37c4.84,0,9.46-4,9.46-9V23Z"/><path class="cls-1" d="M116.61,0H75.74V56.05h40.87c4.85,0,9.48-4,9.48-9V36.42c0-5-3-9-7.85-9,4.85,0,7.85-4.05,7.85-9V9.05c0-5-4.63-9-9.48-9m0,43.29A3.66,3.66,0,0,1,113,47H85.21v-15H113a3.65,3.65,0,0,1,3.6,3.71Zm0-24A3.66,3.66,0,0,1,113,23H85.21v-14H113a3.65,3.65,0,0,1,3.6,3.71Z"/></g></g></svg>