<?xml version="1.0" encoding="utf-8"?>
<!-- Generator: Adobe Illustrator 24.0.0, SVG Export Plug-In . SVG Version: 6.00 Build 0)  -->
<svg version="1.1" id="Layer_1" xmlns="http://www.w3.org/2000/svg" xmlns:xlink="http://www.w3.org/1999/xlink" x="0px" y="0px"
	 viewBox="0 0 1190.55 3190" style="enable-background:new 0 0 1190.55 3190;" xml:space="preserve">
<style type="text/css">
	.st0{fill:#FFDD00;}
</style>
<g>
	<g>
		<g>
			<path class="st0" d="M319.52,1474.33h-37.04c-4.84,0-9.46,4.04-9.46,9.03v37.9c0,4.99,4.62,9.03,9.46,9.03h37.04
				c4.84,0,9.46-4.04,9.46-9.03v-37.9C328.97,1478.38,324.36,1474.33,319.52,1474.33 M319.52,1521.26h-37.04v-37.9h37.04V1521.26z"
				/>
		</g>
		<g>
			<path class="st0" d="M383.11,1502.05l17.84-27.72H389.6l-13.24,20.6c-0.95,1.43-2.55,2.37-4.36,2.37h-0.84
				c-1.81,0-3.41-0.94-4.36-2.37l-13.2-20.6h-11.34l17.85,27.85l-19.04,28.12h11.54l14.61-21.59c0.95-1.43,2.55-2.37,4.36-2.37h0.21
				c1.81,0,3.4,0.94,4.36,2.37l14.69,21.59h11.56L383.11,1502.05z"/>
		</g>
		<g>
			<path class="st0" d="M297.14,1422.6l-5.33,9.02h27.65v14.94h-36.98v-37.9h41.13l5.35-9.03h-46.47c-4.83,0-9.46,4.04-9.46,9.03
				v37.9c0,4.99,4.62,9.03,9.46,9.03h36.98c4.84,0,9.46-4.04,9.46-9.03v-23.95H297.14z"/>
		</g>
		<g>
			<path class="st0" d="M389.63,1399.58h-40.88v56.05h40.88c4.85,0,9.47-4.05,9.47-9.05V1436c0-4.99-3-9.05-7.85-9.05
				c4.85,0,7.85-4.05,7.85-9.04v-9.28C399.1,1403.63,394.48,1399.58,389.63,1399.58 M389.63,1442.87c0,2.05-1.62,3.71-3.6,3.71
				h-27.8v-14.96h27.8c1.99,0,3.6,1.66,3.6,3.71V1442.87z M389.63,1418.87c0,2.05-1.62,3.71-3.6,3.71h-27.8v-13.96h27.8
				c1.99,0,3.6,1.66,3.6,3.71V1418.87z"/>
		</g>
	</g>
</g>
</svg>
